<svg width="32" height="32" viewBox="0 0 32 32" fill="none" xmlns="http://www.w3.org/2000/svg">
<path d="M25.897 25.899C32.497 19.299 31.364 11.569 25.897 6.101C20.43 0.634 12.7 -0.499 6.1 6.101C-0.500004 12.701 0.632996 20.431 6.1 25.899C11.566 31.366 19.297 32.499 25.897 25.899V25.899Z" fill="url(#paint0_radial_4_2)"/>
<path d="M25.897 25.899C32.497 19.299 31.364 11.569 25.897 6.101C20.43 0.634 12.7 -0.499 6.1 6.101C-0.500004 12.701 0.632996 20.431 6.1 25.899C11.566 31.366 19.297 32.499 25.897 25.899V25.899Z" fill="url(#paint1_radial_4_2)"/>
<path d="M25.897 25.899C32.497 19.299 31.364 11.569 25.897 6.101C20.43 0.634 12.7 -0.499 6.1 6.101C-0.500004 12.701 0.632996 20.431 6.1 25.899C11.566 31.366 19.297 32.499 25.897 25.899V25.899Z" fill="url(#paint2_radial_4_2)"/>
<path d="M25.897 25.899C32.497 19.299 31.364 11.569 25.897 6.101C20.43 0.634 12.7 -0.499 6.1 6.101C-0.500004 12.701 0.632996 20.431 6.1 25.899C11.566 31.366 19.297 32.499 25.897 25.899V25.899Z" fill="url(#paint3_radial_4_2)" fill-opacity="0.6"/>
<path d="M25.897 25.899C32.497 19.299 31.364 11.569 25.897 6.101C20.43 0.634 12.7 -0.499 6.1 6.101C-0.500004 12.701 0.632996 20.431 6.1 25.899C11.566 31.366 19.297 32.499 25.897 25.899V25.899Z" fill="url(#paint4_radial_4_2)"/>
<path d="M25.897 25.899C32.497 19.299 31.364 11.569 25.897 6.101C20.43 0.634 12.7 -0.499 6.1 6.101C-0.500004 12.701 0.632996 20.431 6.1 25.899C11.566 31.366 19.297 32.499 25.897 25.899V25.899Z" fill="url(#paint5_radial_4_2)"/>
<path d="M25.897 25.899C32.497 19.299 31.364 11.569 25.897 6.101C20.43 0.634 12.7 -0.499 6.1 6.101C-0.500004 12.701 0.632996 20.431 6.1 25.899C11.566 31.366 19.297 32.499 25.897 25.899V25.899Z" fill="url(#paint6_radial_4_2)"/>
<path d="M25.897 25.899C32.497 19.299 31.364 11.569 25.897 6.101C20.43 0.634 12.7 -0.499 6.1 6.101C-0.500004 12.701 0.632996 20.431 6.1 25.899C11.566 31.366 19.297 32.499 25.897 25.899V25.899Z" fill="url(#paint7_radial_4_2)"/>
<g filter="url(#filter0_f_4_2)">
<path d="M10.184 19.45C10.0959 19.6961 9.91497 19.8979 9.67992 20.0122C9.44487 20.1266 9.17441 20.1443 8.92643 20.0617C8.67846 19.9791 8.47268 19.8027 8.35317 19.5702C8.23366 19.3378 8.2099 19.0677 8.287 18.818L9.067 16.478L11.358 14.186C11.4888 14.3174 11.5805 14.4825 11.6229 14.663C11.6653 14.8434 11.6567 15.0321 11.598 15.208L10.184 19.451V19.45Z" fill="url(#paint8_radial_4_2)" fill-opacity="0.6"/>
<path d="M6.094 15.36C5.84231 15.4438 5.63422 15.6242 5.51551 15.8614C5.3968 16.0986 5.3772 16.3733 5.461 16.625C5.54481 16.8767 5.72517 17.0848 5.96241 17.2035C6.19964 17.3222 6.47431 17.3418 6.726 17.258L9.066 16.478L11.358 14.186C11.2267 14.0554 11.0618 13.9638 10.8815 13.9214C10.7012 13.879 10.5127 13.8875 10.337 13.946L6.094 15.361V15.36Z" fill="url(#paint9_radial_4_2)" fill-opacity="0.6"/>
</g>
<path d="M9.87499 19.141C9.79119 19.3927 9.61083 19.6008 9.37359 19.7195C9.25613 19.7783 9.12823 19.8133 8.99722 19.8227C8.8662 19.832 8.73462 19.8155 8.60999 19.774C8.48537 19.7325 8.37014 19.6669 8.27088 19.5808C8.17162 19.4948 8.09028 19.3901 8.03151 19.2726C7.91279 19.0354 7.89319 18.7607 7.977 18.509L8.757 16.169L11.049 13.877C11.1798 14.0084 11.2715 14.1735 11.3139 14.354C11.3563 14.5344 11.3477 14.7231 11.289 14.899L9.87499 19.14V19.141Z" fill="url(#paint10_linear_4_2)"/>
<path d="M5.784 15.051C5.53231 15.1349 5.32427 15.3154 5.20566 15.5528C5.08704 15.7901 5.06756 16.0648 5.1515 16.3165C5.23544 16.5682 5.41593 16.7762 5.65326 16.8948C5.89058 17.0135 6.16531 17.0329 6.417 16.949L8.757 16.169L11.049 13.877C10.9176 13.7462 10.7525 13.6545 10.572 13.6121C10.3916 13.5697 10.2029 13.5783 10.027 13.637L5.784 15.051V15.051Z" fill="url(#paint11_linear_4_2)"/>
<g filter="url(#filter1_f_4_2)">
<path d="M19.03 10.604C19.1546 10.5625 19.2699 10.4969 19.3691 10.4108C19.4684 10.3248 19.5497 10.2201 19.6085 10.1026C19.6673 9.98513 19.7023 9.85724 19.7117 9.72622C19.721 9.5952 19.7045 9.46362 19.663 9.339C19.6215 9.21438 19.5559 9.09915 19.4698 8.99989C19.3838 8.90063 19.2791 8.81929 19.1616 8.76051C19.0441 8.70173 18.9162 8.66666 18.7852 8.65731C18.6542 8.64796 18.5226 8.6645 18.398 8.706L16.058 9.486L13.767 11.778C13.8983 11.9086 14.0632 12.0002 14.2435 12.0426C14.4238 12.085 14.6123 12.0765 14.788 12.018L19.031 10.604H19.03Z" fill="url(#paint12_radial_4_2)"/>
<path d="M14.94 6.514C15.0238 6.26231 15.2042 6.05422 15.4414 5.93551C15.6786 5.8168 15.9533 5.79719 16.205 5.881C16.4567 5.96481 16.6648 6.14517 16.7835 6.3824C16.9022 6.61963 16.9218 6.89431 16.838 7.146L16.058 9.486L13.767 11.778C13.6362 11.6466 13.5445 11.4815 13.5021 11.301C13.4597 11.1206 13.4683 10.9319 13.527 10.756L14.941 6.514H14.94Z" fill="url(#paint13_radial_4_2)"/>
</g>
<path d="M19.13 9.885C19.3761 9.79691 19.5779 9.61596 19.6922 9.38092C19.8065 9.14587 19.8243 8.87541 19.7417 8.62743C19.6591 8.37946 19.4827 8.17368 19.2502 8.05417C19.0178 7.93465 18.7477 7.9109 18.498 7.988L16.158 8.768L13.866 11.06C13.9974 11.1908 14.1625 11.2825 14.343 11.3249C14.5234 11.3673 14.7121 11.3587 14.888 11.3L19.13 9.885V9.885Z" fill="url(#paint14_linear_4_2)"/>
<path d="M15.04 5.795C15.1239 5.54331 15.3044 5.33527 15.5417 5.21666C15.7791 5.09804 16.0538 5.07856 16.3055 5.1625C16.5572 5.24644 16.7652 5.42693 16.8838 5.66426C17.0025 5.90158 17.0219 6.17631 16.938 6.428L16.158 8.768L13.866 11.06C13.7352 10.9286 13.6435 10.7635 13.6011 10.583C13.5587 10.4026 13.5673 10.2139 13.626 10.038L15.04 5.795V5.795Z" fill="url(#paint15_linear_4_2)"/>
<path d="M23.071 23.071C16 30.142 8.929 23.071 8.929 23.071L23.071 8.929C23.071 8.929 30.142 16 23.071 23.071V23.071Z" fill="url(#paint16_radial_4_2)"/>
<path d="M22.364 11.757L11.757 22.364C11.4757 22.6452 11.0942 22.8032 10.6965 22.8032C10.2988 22.8032 9.91729 22.6452 9.636 22.364L22.364 9.636C22.6452 9.91729 22.8032 10.2988 22.8032 10.6965C22.8032 11.0942 22.6452 11.4757 22.364 11.757Z" fill="url(#paint17_linear_4_2)"/>
<path fill-rule="evenodd" clip-rule="evenodd" d="M10.741 29.214C11.2256 29.121 11.6628 28.8621 11.9772 28.4818C12.2916 28.1015 12.4638 27.6235 12.464 27.13V22.364C12.464 22.0855 12.4091 21.8097 12.3025 21.5523C12.196 21.295 12.0397 21.0612 11.8428 20.8642C11.6458 20.6673 11.412 20.511 11.1547 20.4045C10.8973 20.2979 10.6215 20.243 10.343 20.243C10.0645 20.243 9.78866 20.2979 9.53133 20.4045C9.274 20.511 9.04018 20.6673 8.84323 20.8642C8.64627 21.0612 8.49004 21.295 8.38345 21.5523C8.27686 21.8097 8.222 22.0855 8.222 22.364V27.13C8.222 27.362 8.259 27.586 8.329 27.796C9.105 28.351 9.911 28.826 10.741 29.214V29.214Z" fill="url(#paint18_radial_4_2)"/>
<path fill-rule="evenodd" clip-rule="evenodd" d="M27.314 7.692H22.894C22.3315 7.692 21.792 7.91546 21.3942 8.31323C20.9965 8.71099 20.773 9.25048 20.773 9.813C20.773 10.3755 20.9965 10.915 21.3942 11.3128C21.792 11.7105 22.3315 11.934 22.894 11.934H27.66C28.361 11.934 28.978 11.595 29.363 11.077C28.8282 9.86537 28.1395 8.72768 27.314 7.692V7.692Z" fill="url(#paint19_radial_4_2)"/>
<path d="M11.05 22.364V27.13C11.05 27.6925 10.8265 28.232 10.4288 28.6298C10.031 29.0275 9.49152 29.251 8.929 29.251C8.36647 29.251 7.82699 29.0275 7.42922 28.6298C7.03146 28.232 6.808 27.6925 6.808 27.13V22.364C6.808 21.8015 7.03146 21.262 7.42922 20.8642C7.82699 20.4665 8.36647 20.243 8.929 20.243C9.49152 20.243 10.031 20.4665 10.4288 20.8642C10.8265 21.262 11.05 21.8015 11.05 22.364Z" fill="url(#paint20_radial_4_2)"/>
<path d="M22.54 10.873H27.306C27.8685 10.873 28.408 10.6495 28.8058 10.2518C29.2035 9.85401 29.427 9.31452 29.427 8.752C29.427 8.18948 29.2035 7.64999 28.8058 7.25223C28.408 6.85446 27.8685 6.631 27.306 6.631H22.541C21.9785 6.631 21.439 6.85446 21.0412 7.25223C20.6435 7.64999 20.42 8.18948 20.42 8.752C20.42 9.31452 20.6435 9.85401 21.0412 10.2518C21.439 10.6495 21.9785 10.873 22.541 10.873H22.54Z" fill="url(#paint21_radial_4_2)"/>
<defs>
<filter id="filter0_f_4_2" x="4.90977" y="13.3949" width="7.23961" height="7.21809" filterUnits="userSpaceOnUse" color-interpolation-filters="sRGB">
<feFlood flood-opacity="0" result="BackgroundImageFix"/>
<feBlend mode="normal" in="SourceGraphic" in2="BackgroundImageFix" result="shape"/>
<feGaussianBlur stdDeviation="0.25" result="effect1_foregroundBlur_4_2"/>
</filter>
<filter id="filter1_f_4_2" x="12.9756" y="5.32977" width="7.23862" height="7.23936" filterUnits="userSpaceOnUse" color-interpolation-filters="sRGB">
<feFlood flood-opacity="0" result="BackgroundImageFix"/>
<feBlend mode="normal" in="SourceGraphic" in2="BackgroundImageFix" result="shape"/>
<feGaussianBlur stdDeviation="0.25" result="effect1_foregroundBlur_4_2"/>
</filter>
<radialGradient id="paint0_radial_4_2" cx="0" cy="0" r="1" gradientUnits="userSpaceOnUse" gradientTransform="translate(17.7677 4.33315) rotate(87.839) scale(37.5033)">
<stop stop-color="#FFF478"/>
<stop offset="0.475" stop-color="#FFB02E"/>
<stop offset="1" stop-color="#F70A8D"/>
</radialGradient>
<radialGradient id="paint1_radial_4_2" cx="0" cy="0" r="1" gradientUnits="userSpaceOnUse" gradientTransform="translate(17.7676 4.33286) rotate(86.878) scale(38.9487)">
<stop stop-color="#FFF478"/>
<stop offset="0.475" stop-color="#FFB02E"/>
<stop offset="1" stop-color="#F70A8D"/>
</radialGradient>
<radialGradient id="paint2_radial_4_2" cx="0" cy="0" r="1" gradientUnits="userSpaceOnUse" gradientTransform="translate(13.525 13.525) rotate(56.3099) scale(17.8466 22.8581)">
<stop offset="0.788" stop-color="#F59639" stop-opacity="0"/>
<stop offset="0.973" stop-color="#FF7DCE"/>
</radialGradient>
<radialGradient id="paint3_radial_4_2" cx="0" cy="0" r="1" gradientUnits="userSpaceOnUse" gradientTransform="translate(16 13.172) rotate(90) scale(41.0122 41.0122)">
<stop offset="0.315" stop-opacity="0"/>
<stop offset="1"/>
</radialGradient>
<radialGradient id="paint4_radial_4_2" cx="0" cy="0" r="1" gradientUnits="userSpaceOnUse" gradientTransform="translate(16.7067 16.7073) rotate(32.692) scale(28.1469)">
<stop offset="0.508" stop-color="#7D6133" stop-opacity="0"/>
<stop offset="1" stop-color="#715B32"/>
</radialGradient>
<radialGradient id="paint5_radial_4_2" cx="0" cy="0" r="1" gradientUnits="userSpaceOnUse" gradientTransform="translate(16.707 16) rotate(10.7131) scale(13.3135 9.65032)">
<stop stop-color="#FFB849"/>
<stop offset="1" stop-color="#FFB847" stop-opacity="0"/>
</radialGradient>
<radialGradient id="paint6_radial_4_2" cx="0" cy="0" r="1" gradientUnits="userSpaceOnUse" gradientTransform="translate(20.5959 14.2324) rotate(-35.134) scale(11.6726)">
<stop stop-color="#FFA64B"/>
<stop offset="0.9" stop-color="#FFAE46" stop-opacity="0"/>
</radialGradient>
<radialGradient id="paint7_radial_4_2" cx="0" cy="0" r="1" gradientUnits="userSpaceOnUse" gradientTransform="translate(16.3509 14.23) rotate(-1.029) scale(59.0529)">
<stop offset="0.185" stop-opacity="0"/>
<stop offset="1" stop-opacity="0.4"/>
</radialGradient>
<radialGradient id="paint8_radial_4_2" cx="0" cy="0" r="1" gradientUnits="userSpaceOnUse" gradientTransform="translate(6.255 15.05) rotate(65.225) scale(7.59317 9.92428)">
<stop stop-color="#9F5E0F"/>
<stop offset="0.889" stop-color="#9F5E0F" stop-opacity="0"/>
</radialGradient>
<radialGradient id="paint9_radial_4_2" cx="0" cy="0" r="1" gradientUnits="userSpaceOnUse" gradientTransform="translate(6.255 15.05) rotate(65.225) scale(7.59317 9.92428)">
<stop stop-color="#9F5E0F"/>
<stop offset="0.889" stop-color="#9F5E0F" stop-opacity="0"/>
</radialGradient>
<linearGradient id="paint10_linear_4_2" x1="11.27" y1="18.937" x2="5.668" y2="16.982" gradientUnits="userSpaceOnUse">
<stop offset="0.25" stop-color="#482641"/>
<stop offset="0.406" stop-color="#503A4A"/>
<stop offset="0.511" stop-color="#482641"/>
</linearGradient>
<linearGradient id="paint11_linear_4_2" x1="7.513" y1="17.611" x2="5.889" y2="12.607" gradientUnits="userSpaceOnUse">
<stop offset="0.25" stop-color="#482641"/>
<stop offset="0.406" stop-color="#503A4A"/>
<stop offset="0.511" stop-color="#482641"/>
</linearGradient>
<radialGradient id="paint12_radial_4_2" cx="0" cy="0" r="1" gradientUnits="userSpaceOnUse" gradientTransform="translate(23.259 7.946) rotate(179.005) scale(13.3597 17.4611)">
<stop stop-color="#E9830A"/>
<stop offset="0.802" stop-color="#F08B13" stop-opacity="0"/>
</radialGradient>
<radialGradient id="paint13_radial_4_2" cx="0" cy="0" r="1" gradientUnits="userSpaceOnUse" gradientTransform="translate(23.259 7.946) rotate(179.005) scale(13.3597 17.4611)">
<stop stop-color="#E9830A"/>
<stop offset="0.802" stop-color="#F08B13" stop-opacity="0"/>
</radialGradient>
<linearGradient id="paint14_linear_4_2" x1="18.926" y1="11.281" x2="16.971" y2="5.679" gradientUnits="userSpaceOnUse">
<stop offset="0.25" stop-color="#482641"/>
<stop offset="0.406" stop-color="#503A4A"/>
<stop offset="0.511" stop-color="#482641"/>
</linearGradient>
<linearGradient id="paint15_linear_4_2" x1="17.601" y1="7.524" x2="12.596" y2="5.9" gradientUnits="userSpaceOnUse">
<stop offset="0.25" stop-color="#482641"/>
<stop offset="0.406" stop-color="#503A4A"/>
<stop offset="0.511" stop-color="#482641"/>
</linearGradient>
<radialGradient id="paint16_radial_4_2" cx="0" cy="0" r="1" gradientUnits="userSpaceOnUse" gradientTransform="translate(26.5 27.0006) rotate(-135) scale(16.9706 33.9411)">
<stop offset="0.051" stop-color="#F70A8D"/>
<stop offset="1" stop-color="#89029C"/>
</radialGradient>
<linearGradient id="paint17_linear_4_2" x1="16" y1="16" x2="17.061" y2="17.061" gradientUnits="userSpaceOnUse">
<stop stop-color="#ECCDFF"/>
<stop offset="1" stop-color="white"/>
</linearGradient>
<radialGradient id="paint18_radial_4_2" cx="0" cy="0" r="1" gradientUnits="userSpaceOnUse" gradientTransform="translate(9.99 26.96) rotate(-77.0054) scale(4.717 3.06194)">
<stop stop-color="#6D4534"/>
<stop offset="1" stop-color="#FF822D" stop-opacity="0"/>
</radialGradient>
<radialGradient id="paint19_radial_4_2" cx="0" cy="0" r="1" gradientUnits="userSpaceOnUse" gradientTransform="translate(23.071 9.636) rotate(-11.3099) scale(5.40833 3.51069)">
<stop stop-color="#6D4534"/>
<stop offset="1" stop-color="#FF822D" stop-opacity="0"/>
</radialGradient>
<radialGradient id="paint20_radial_4_2" cx="0" cy="0" r="1" gradientUnits="userSpaceOnUse" gradientTransform="translate(9.6358 20.9505) rotate(102.529) scale(6.5192 2.96814)">
<stop stop-color="#508FFF"/>
<stop offset="1" stop-color="#3D5BF1"/>
</radialGradient>
<radialGradient id="paint21_radial_4_2" cx="0" cy="0" r="1" gradientUnits="userSpaceOnUse" gradientTransform="translate(23.778 7.515) rotate(4.39866) scale(4.60978 2.09878)">
<stop stop-color="#5092FF"/>
<stop offset="1" stop-color="#3F5FFF"/>
</radialGradient>
</defs>
</svg>
